<?xml version="1.0" standalone="no"?>
<!DOCTYPE svg PUBLIC "-//W3C//DTD SVG 20010904//EN"
 "http://www.w3.org/TR/2001/REC-SVG-20010904/DTD/svg10.dtd">
<svg version="1.0" xmlns="http://www.w3.org/2000/svg"
 width="200.000000pt" height="200.000000pt" viewBox="0 0 200.000000 200.000000"
 preserveAspectRatio="xMidYMid meet">
<metadata>
Created by potrace 1.11, written by Peter Selinger 2001-2013
</metadata>
<g transform="translate(0.000000,200.000000) scale(0.100000,-0.100000)"
fill="#000000" stroke="none">
<path d="M866 1834 c-9 -8 -16 -26 -16 -39 0 -13 -9 -30 -20 -38 -11 -8 -59
-51 -105 -96 -47 -44 -92 -81 -101 -81 -19 0 -56 -19 -66 -34 -13 -18 -9 -54
7 -70 8 -8 15 -19 15 -24 0 -5 -25 -62 -55 -128 -36 -78 -61 -120 -72 -123
-48 -9 -71 -73 -37 -102 13 -11 15 -29 9 -118 -10 -155 -12 -169 -35 -198 -25
-32 -25 -58 0 -83 27 -27 56 -25 83 4 23 24 24 24 255 27 228 3 232 3 252 -19
22 -23 50 -28 78 -13 12 6 50 -4 132 -37 63 -25 121 -52 128 -59 15 -14 41
-17 58 -5 18 13 44 56 44 75 0 28 113 267 127 267 6 0 21 14 33 30 30 43 17
80 -38 107 -4 1 -5 12 -23 153 -16 133 -16 133 -2 155 7 11 13 25 13 33 0 20
-47 63 -62 57 -8 -3 -25 7 -38 22 -13 15 -47 55 -76 88 -49 56 -51 62 -39 84
15 29 3 76 -24 90 -20 11 -72 5 -81 -8 -10 -17 -259 53 -277 78 -17 25 -46 27
-67 5z m204 -94 c61 -16 113 -30 115 -30 3 0 5 -10 5 -22 -1 -14 -33 -60 -80
-115 -89 -102 -112 -110 -129 -44 -40 150 -58 231 -53 236 9 9 29 6 142 -25z
m-151 -111 c36 -146 36 -152 15 -170 -13 -11 -34 -7 -131 26 -146 51 -154 62
-87 123 144 130 168 151 170 149 1 -1 16 -59 33 -128z m382 -34 c66 -75 119
-143 119 -152 0 -7 -64 -11 -175 -12 -149 -2 -176 0 -181 13 -4 10 21 48 68
105 70 86 74 89 107 84 21 -4 45 -18 62 -38z m-502 -143 c76 -26 117 -46 128
-61 15 -22 14 -25 -18 -69 -18 -26 -50 -72 -71 -103 -58 -83 -66 -77 -128 101
-47 135 -54 170 -31 170 4 0 58 -17 120 -38z m-120 -138 l49 -139 -22 -27
c-23 -28 -31 -28 -142 -7 -72 14 -74 30 -17 154 25 55 52 115 60 134 8 18 16
31 19 29 2 -3 26 -68 53 -144z m741 72 c0 -22 -141 -256 -160 -266 -19 -10
-41 17 -174 214 -45 67 -47 66 154 66 147 0 180 -3 180 -14z m51 -43 c0 -10 2
-27 4 -38 6 -29 13 -91 21 -167 6 -69 -10 -133 -31 -124 -5 2 -38 13 -72 26
-103 37 -103 43 -15 193 42 70 79 127 84 127 4 0 8 -8 9 -17z m-349 -121 c47
-71 83 -133 80 -139 -5 -8 -48 -6 -155 7 -82 11 -164 21 -184 22 -19 1 -37 6
-40 11 -5 8 39 80 107 172 31 42 43 51 71 53 33 2 37 -2 121 -126z m-434 -132
c44 0 -16 -83 -194 -267 -7 -7 -20 -13 -29 -13 -15 0 -16 12 -10 118 9 149 7
137 36 164 23 23 26 23 104 11 44 -7 86 -13 93 -13z m322 -30 c41 -5 98 -12
125 -15 28 -3 54 -10 59 -15 6 -6 -19 -51 -60 -114 -90 -137 -93 -137 -193
-16 -40 50 -86 105 -101 122 -16 17 -26 38 -23 46 6 14 17 14 193 -8z m-130
-140 c63 -75 100 -127 96 -135 -4 -11 -25 -15 -83 -16 -271 -4 -393 -3 -395 2
-2 3 51 65 117 137 82 90 127 132 141 132 15 0 52 -36 124 -120z m602 43 c19
-17 21 -12 -46 -155 -35 -75 -37 -77 -61 -66 -26 12 -27 15 -63 161 -19 76
-19 79 0 102 l19 24 67 -25 c37 -14 75 -33 84 -41z m-235 19 c7 -4 25 -61 41
-127 24 -100 27 -122 15 -133 -12 -12 -17 -34 -14 -54 0 -4 -23 2 -52 13 -28
12 -72 28 -97 38 -68 25 -66 48 16 170 37 56 70 101 73 101 3 0 11 -4 18 -8z"/>
<path d="M1724 439 c-18 -6 -19 -17 -18 -150 1 -79 2 -149 3 -155 1 -7 16 -11
39 -9 41 2 37 -11 41 133 1 30 5 42 16 42 11 0 15 -19 17 -87 l3 -88 38 -1 37
-2 0 103 c0 124 -9 140 -74 133 l-41 -5 3 42 c3 38 1 43 -21 47 -13 3 -33 1
-43 -3z"/>
<path d="M100 277 l0 -153 33 -1 c17 0 34 4 37 8 3 4 5 42 4 83 0 42 3 76 8
76 4 0 8 -6 8 -12 0 -7 5 -30 11 -50 8 -33 14 -38 39 -38 26 0 30 5 48 58 l20
57 0 -55 c-1 -131 -2 -127 37 -127 l35 0 0 154 0 153 -45 0 -44 0 -25 -77
c-26 -84 -26 -84 -55 14 l-17 58 -47 3 -47 3 0 -154z"/>
<path d="M650 276 l0 -153 33 2 c17 2 34 3 37 4 3 0 4 40 3 88 -1 58 1 83 7
73 5 -8 10 -23 10 -32 0 -38 23 -68 51 -68 24 0 30 6 38 38 6 20 11 44 11 52
0 12 2 12 9 2 4 -7 7 -45 6 -83 -2 -73 4 -82 50 -75 19 3 20 12 23 155 l3 152
-47 -3 -47 -3 -22 -68 c-12 -37 -19 -69 -17 -72 3 -3 1 -5 -4 -5 -6 0 -20 34
-32 75 l-22 75 -45 0 -45 0 0 -154z"/>
<path d="M1047 423 c-2 -5 -2 -14 -1 -20 1 -7 2 -17 3 -23 0 -5 13 -10 29 -10
l27 0 0 -122 0 -123 30 -1 c54 -2 55 -1 55 126 l0 119 28 3 c22 2 27 8 28 31
l1 27 -98 0 c-54 0 -100 -3 -102 -7z"/>
<path d="M447 362 l-28 -3 3 -117 3 -117 38 0 37 0 0 87 c0 72 3 88 15 88 12
0 15 -16 15 -84 0 -90 3 -95 55 -92 l29 2 -1 104 c-1 119 -10 135 -74 127 -20
-3 -42 -2 -50 2 -8 4 -27 5 -42 3z"/>
<path d="M1279 344 c-14 -17 -22 -139 -13 -180 7 -30 39 -41 106 -39 65 2 88
16 88 54 0 24 -4 26 -37 26 -20 0 -38 -6 -40 -12 -8 -22 -43 -15 -43 7 0 18 7
20 60 20 l60 0 0 53 c0 73 -16 87 -102 87 -49 0 -69 -4 -79 -16z m100 -48 c9
-11 9 -16 -1 -22 -23 -15 -38 -13 -38 5 0 32 20 40 39 17z"/>
<path d="M1506 347 c-25 -18 -28 -179 -4 -203 30 -31 148 -24 170 10 10 14 10
56 1 57 -45 8 -72 3 -76 -13 -3 -10 -10 -18 -16 -18 -7 0 -11 23 -11 60 0 47
3 60 15 60 8 0 15 -7 15 -15 0 -11 11 -15 40 -15 35 0 40 3 40 23 0 12 -7 33
-16 45 -13 19 -24 22 -78 22 -35 0 -70 -6 -80 -13z"/>
</g>
</svg>
